<?xml version="1.0" standalone="no"?>
<!DOCTYPE svg PUBLIC "-//W3C//DTD SVG 20010904//EN"
 "http://www.w3.org/TR/2001/REC-SVG-20010904/DTD/svg10.dtd">
<svg version="1.0" xmlns="http://www.w3.org/2000/svg"
 width="300px" height="300px" viewBox="0 0 359.000000 352.000000" 
 preserveAspectRatio="xMidYMid meet">

<g transform="translate(0.000000,352.000000) scale(0.100000,-0.100000)"
fill="#f5f5f5" stroke="none">
<path d="M1930 3510 c-156 -28 -292 -132 -361 -277 l-31 -65 -47 45 c-99 96
-206 139 -346 140 -145 1 -257 -46 -357 -151 -179 -188 -185 -484 -13 -668 41
-45 979 -696 1004 -698 22 -2 684 963 705 1027 117 355 -189 712 -554 647z"/>
<path d="M2770 2887 c-73 -25 -153 -72 -191 -114 -31 -34 -692 -993 -687 -997
40 -35 968 -666 1003 -682 28 -13 83 -28 123 -34 293 -46 561 186 562 485 0
192 -107 364 -277 447 l-72 34 49 49 c218 214 175 593 -86 761 -120 77 -289
97 -424 51z"/>
<path d="M383 2446 c-144 -36 -266 -137 -331 -273 -37 -78 -37 -78 -37 -209
l0 -131 42 -85 c52 -104 130 -182 231 -230 l68 -32 -33 -29 c-50 -44 -111
-142 -133 -214 -28 -90 -27 -222 1 -306 52 -156 184 -281 344 -323 68 -19 190
-17 256 2 79 23 160 69 207 117 34 35 705 998 699 1003 -1 1 -222 154 -492
340 -325 223 -509 344 -545 357 -69 24 -207 31 -277 13z"/>
<path d="M1467 1200 c-186 -269 -344 -509 -352 -531 -105 -297 81 -613 389
-661 211 -33 426 79 518 270 l34 69 54 -50 c102 -93 250 -145 381 -133 182 16
327 118 408 286 33 70 36 83 39 185 3 92 1 120 -18 174 -25 74 -73 153 -121
197 -34 31 -956 670 -981 679 -9 4 -131 -166 -351 -485z"/>
</g>
</svg>
